<svg xmlns="http://www.w3.org/2000/svg" width="57" height="57" viewBox="0 0 57 57" fill="none">
<circle cx="28.5" cy="28.5" r="27.5" fill="#FFFCFC"/>
<circle cx="28.5" cy="28.5" r="28" stroke="#007BFF" stroke-opacity="0.74902"/>
<path fill-rule="evenodd" clip-rule="evenodd" d="M28.2545 12.8462C28.777 12.8462 29.3061 12.865 29.4302 12.8965C29.5543 12.9342 29.8351 12.9908 30.0507 13.0285C30.2662 13.0725 30.6777 13.1857 30.9651 13.28C31.2524 13.3743 31.6509 13.5315 31.8468 13.6258C32.0428 13.7201 32.3954 13.9213 32.6306 14.0722C32.8657 14.2168 33.2772 14.5249 33.545 14.745C33.8128 14.9713 34.1655 15.3045 34.3288 15.4869C34.492 15.6755 34.7141 15.9396 34.8252 16.0779C34.9362 16.2162 35.1191 16.4803 35.2301 16.6626C35.3477 16.8387 35.5567 17.2536 35.6938 17.568C35.8375 17.8887 36.0139 18.3791 36.0857 18.6557C36.1576 18.9324 36.2425 19.4857 36.2817 19.8818C36.3209 20.3533 36.3209 20.85 36.2817 21.2964C36.249 21.68 36.1772 22.1704 36.1184 22.3967C36.0661 22.6231 35.9486 23.0066 35.8571 23.2455C35.7657 23.4845 35.5697 23.912 35.4195 24.1887C35.2693 24.4653 35.008 24.874 34.8317 25.1003C34.6619 25.3267 34.2961 25.7291 34.0153 26.0057C33.7409 26.2761 33.2903 26.6596 33.0225 26.8545C32.7547 27.0494 32.2975 27.3261 32.0101 27.4707C31.7227 27.6153 31.2851 27.8039 31.0304 27.8919C30.7756 27.9737 30.3707 28.0931 30.116 28.1497C29.8612 28.2063 29.3518 28.2755 28.973 28.3006C28.5941 28.3321 27.9671 28.3321 27.5687 28.3006C27.1703 28.2692 26.5694 28.1812 26.2298 28.0931C25.8901 28.0114 25.3611 27.8354 25.0541 27.7096C24.7471 27.5776 24.2181 27.2946 23.8784 27.0746C23.5388 26.8608 23.0097 26.4521 22.7028 26.1629C22.3958 25.8737 22.0104 25.465 21.8406 25.2575C21.6773 25.05 21.403 24.6414 21.2267 24.3458C21.0503 24.0503 20.7956 23.5033 20.665 23.1198C20.5213 22.7237 20.3776 22.1201 20.3123 21.7051C20.2404 21.2021 20.2143 20.762 20.2404 20.259C20.26 19.8629 20.3253 19.3096 20.3841 19.033C20.4429 18.7563 20.567 18.3162 20.6584 18.0584C20.7499 17.8006 20.9132 17.4171 21.0177 17.2096C21.1287 17.0021 21.3704 16.606 21.5598 16.3294C21.7492 16.0527 22.1345 15.5875 22.4154 15.2983C22.7028 15.009 23.1796 14.5878 23.4865 14.3677C23.7935 14.1477 24.3356 13.827 24.6949 13.651C25.0541 13.4749 25.5374 13.28 25.7726 13.2108C26.0077 13.148 26.4453 13.0348 26.7523 12.9719C27.1442 12.8902 27.5883 12.8524 28.2545 12.8462V12.8462ZM26.3604 15.009C26.1644 15.0719 25.7791 15.2291 25.5113 15.3611C25.2435 15.4932 24.7863 15.7824 24.4989 16.0024C24.2115 16.2225 23.7739 16.6438 23.5323 16.933C23.2841 17.2222 22.9575 17.7126 22.7942 18.027C22.6375 18.3414 22.4415 18.8192 22.3697 19.0959C22.2586 19.4982 22.226 19.7938 22.2194 20.542C22.2194 21.2399 22.2456 21.5982 22.3305 21.9252C22.3958 22.1641 22.5264 22.5665 22.6179 22.8054C22.7158 23.0443 22.9379 23.4593 23.1208 23.7171C23.2971 23.9749 23.6498 24.3961 23.9046 24.6539C24.1593 24.9054 24.5446 25.2387 24.7602 25.3833C24.9757 25.5342 25.3676 25.7605 25.6289 25.88C25.8836 26.0057 26.3147 26.1629 26.5759 26.2321C26.8306 26.3012 27.314 26.383 27.634 26.4144C28.0063 26.4521 28.4635 26.4521 28.875 26.4144C29.2342 26.383 29.7045 26.3138 29.92 26.2572C30.1356 26.2069 30.5797 26.0372 30.8997 25.8863C31.2198 25.7354 31.677 25.4776 31.9121 25.3015C32.1473 25.1318 32.513 24.8111 32.7286 24.5911C32.9441 24.371 33.238 24.0189 33.3752 23.8114C33.5189 23.6039 33.7279 23.233 33.8454 22.9941C33.963 22.7551 34.1002 22.3842 34.1589 22.1767C34.2112 21.9692 34.2896 21.5291 34.3222 21.2021C34.3679 20.8249 34.3679 20.3848 34.3288 20.0075C34.2961 19.6806 34.2243 19.2468 34.1655 19.0518C34.1132 18.8506 33.9891 18.5111 33.8977 18.2974C33.8062 18.0773 33.5711 17.6749 33.3817 17.3983C33.1923 17.1216 32.7939 16.6689 32.4934 16.3923C32.193 16.1156 31.7684 15.7761 31.5529 15.6378C31.3374 15.5057 30.9716 15.3108 30.7365 15.2102C30.5013 15.1096 30.0898 14.9713 29.8221 14.9084C29.5151 14.8267 29.0187 14.7764 28.4831 14.7575C27.9279 14.7387 27.4773 14.7575 27.1768 14.8141C26.9286 14.8581 26.5563 14.9462 26.3604 15.009V15.009ZM21.7557 28.3761C21.8276 28.3761 22.0366 28.4075 22.2129 28.4515C22.4219 28.5018 22.9575 28.7848 23.6825 29.2249C24.3095 29.6084 24.93 29.9731 25.0541 30.036C25.1782 30.0988 25.5897 30.256 25.9685 30.3881C26.3473 30.5138 26.9025 30.6647 27.2095 30.7213C27.5165 30.7779 28.0978 30.8282 28.5158 30.8282C29.0187 30.8282 29.4563 30.7904 29.8547 30.7024C30.1748 30.6395 30.7234 30.4824 31.063 30.3629C31.4027 30.2434 31.8011 30.0925 31.9448 30.0234C32.0885 29.9479 32.6175 29.6398 33.1204 29.3318C33.6234 29.0174 34.1851 28.6904 34.3614 28.6087C34.5443 28.5207 34.786 28.4327 34.9035 28.4075C35.0146 28.3887 35.413 28.4012 35.7853 28.439C36.151 28.4767 36.6997 28.5773 37.0067 28.6653C37.3136 28.747 37.7839 28.9294 38.0517 29.0677C38.3195 29.1997 38.744 29.4638 38.9922 29.6461C39.2404 29.8222 39.6062 30.1554 39.8086 30.3818C40.0046 30.6081 40.2854 30.9728 40.4357 31.1991C40.5924 31.4255 40.8145 31.8027 40.9451 32.0479C41.0692 32.2931 41.2717 32.7458 41.3958 33.0539C41.5264 33.3683 41.7158 33.9719 41.8269 34.4057C41.9379 34.8395 42.0881 35.5437 42.16 35.9776C42.2318 36.4114 42.3037 36.9458 42.3298 37.1722C42.3494 37.3985 42.3951 38.0147 42.4278 38.5428C42.48 39.3036 42.4735 39.6431 42.3951 40.209C42.3429 40.5925 42.2384 41.1081 42.16 41.3533C42.0816 41.5985 41.9248 41.9758 41.8073 42.2021C41.6897 42.4285 41.435 42.7994 41.2456 43.0383C41.0496 43.271 40.6904 43.6231 40.4357 43.818C40.1809 44.0129 39.7107 44.2895 39.3906 44.4404C39.0706 44.585 38.535 44.7737 37.6271 45H19.3391L18.7512 44.8491C18.4247 44.7737 17.9283 44.5976 17.6409 44.4719C17.3535 44.3461 16.9551 44.1261 16.7591 43.9877C16.5632 43.8431 16.1909 43.5225 15.9427 43.2647C15.6161 42.9252 15.4006 42.6297 15.1785 42.2021C15.0087 41.8752 14.8258 41.435 14.7671 41.2276C14.7148 41.0201 14.643 40.6554 14.6038 40.4102C14.5711 40.165 14.5385 39.662 14.5385 39.2785C14.5385 38.9012 14.5711 38.1907 14.6038 37.7066C14.643 37.2225 14.7344 36.4554 14.8062 36.009C14.8846 35.5626 15.0414 34.8207 15.1589 34.3743C15.2765 33.9279 15.4986 33.2614 15.6423 32.8967C15.786 32.5321 16.0603 31.9851 16.2432 31.6707C16.426 31.3626 16.7134 30.9351 16.8832 30.7276C17.0465 30.5201 17.3404 30.2057 17.5233 30.0234C17.7127 29.841 18.0524 29.5707 18.2744 29.4261C18.503 29.2815 18.8949 29.074 19.1431 28.9608C19.3913 28.8476 19.8224 28.6967 20.0902 28.6276C20.358 28.5521 20.8152 28.4704 21.1026 28.439C21.3899 28.4138 21.6839 28.3824 21.7557 28.3761V28.3761ZM20.3319 30.5264C20.1098 30.6018 19.7571 30.7653 19.5415 30.8848C19.3325 31.0042 18.9994 31.2746 18.797 31.4821C18.5945 31.6895 18.3136 32.0416 18.1569 32.268C18.0067 32.4943 17.8107 32.8213 17.7193 32.991C17.6278 33.1671 17.4384 33.6449 17.2947 34.0599C17.151 34.4749 16.9551 35.1853 16.8702 35.6318C16.7787 36.0782 16.6742 36.7069 16.635 37.015C16.5959 37.3294 16.5501 38.1027 16.5305 38.744C16.4979 39.6746 16.5044 40.0078 16.5893 40.4102C16.6481 40.6868 16.7853 41.0955 16.9028 41.3219C17.0269 41.5734 17.2621 41.8752 17.5037 42.1078C17.7258 42.3153 18.0785 42.5794 18.294 42.6862C18.5096 42.7931 18.8753 42.9377 19.1105 43.0006C19.5154 43.1075 20.0053 43.1138 28.4831 43.1138C36.9936 43.1138 37.4508 43.1075 37.8557 42.9943C38.0909 42.9314 38.4436 42.8057 38.6395 42.7051C38.8355 42.6108 39.1882 42.3656 39.4102 42.1644C39.7107 41.9003 39.8936 41.6677 40.0503 41.3533C40.1744 41.1081 40.3181 40.7183 40.3704 40.4731C40.4226 40.2279 40.4683 39.7249 40.4683 39.3413C40.4683 38.9641 40.4357 38.2536 40.403 37.7695C40.3638 37.2853 40.2789 36.5497 40.2071 36.1347C40.1352 35.7198 39.9981 35.0973 39.9001 34.7515C39.8086 34.4057 39.6454 33.909 39.5409 33.6512C39.4298 33.3934 39.2731 33.0413 39.1816 32.8653C39.0902 32.6955 38.8747 32.356 38.7048 32.1108C38.535 31.8656 38.2084 31.5072 37.9798 31.2997C37.7512 31.0985 37.3985 30.8533 37.2026 30.759C37.0067 30.6647 36.6931 30.5389 36.5168 30.4824C36.3339 30.4258 35.9877 30.3566 35.733 30.3252C35.3085 30.2749 35.2562 30.2812 34.9819 30.4321C34.8186 30.5201 34.381 30.7904 34.0022 31.0294C33.6234 31.2683 33.0225 31.5952 32.6632 31.765C32.304 31.9285 31.6901 32.1674 31.2916 32.2869C30.8932 32.4063 30.2923 32.5509 29.9527 32.6075C29.6 32.6641 28.9664 32.7081 28.4831 32.7081C27.9998 32.7081 27.3662 32.6641 27.0135 32.6075C26.6739 32.5509 26.0534 32.4 25.6419 32.268C25.2304 32.1422 24.6687 31.9348 24.4009 31.8153C24.1332 31.6958 23.4212 31.2997 22.8138 30.9288C22.2129 30.5578 21.7035 30.2623 21.6773 30.2623C21.6447 30.2686 21.4291 30.2937 21.1809 30.3252C20.9393 30.3566 20.5605 30.4446 20.3319 30.5264Z" fill="#007BFF"/>
</svg>