<?xml version="1.0" encoding="utf-8"?>
<svg id="master-artboard" viewBox="0 0 752.5926513671875 85.22785186767578" xmlns="http://www.w3.org/2000/svg" width="752.5926513671875px" height="85.22785186767578px" version="1.1" style="shape-rendering:geometricPrecision; text-rendering:geometricPrecision; image-rendering:optimizeQuality; fill-rule:evenodd; clip-rule:evenodd" xmlns:xlink="http://www.w3.org/1999/xlink"><rect id="ee-background" x="0" y="0" width="752.5926513671875" height="85.22785186767578" style="fill: white; fill-opacity: 0; pointer-events: none;"/><g transform="matrix(1.2760417461395264, 0, 0, 1.2760417461395264, -277.2643737792969, -447.36860728263855)"><metadata id="metadata551956">
    
  </metadata><linearGradient spreadMethod="pad" y2="30%" x2="-10%" y1="120%" x1="30%" id="3d_gradient2-logo-87f552e3-d900-4924-83f5-4a388e983bb9">
    <stop id="stop551931" stop-opacity="1" stop-color="#ffffff" offset="0%"/>
    <stop id="stop551933" stop-opacity="1" stop-color="#000000" offset="100%"/>
  </linearGradient><linearGradient gradientTransform="rotate(-30)" spreadMethod="pad" y2="30%" x2="-10%" y1="120%" x1="30%" id="3d_gradient3-logo-87f552e3-d900-4924-83f5-4a388e983bb9">
    <stop id="stop551936" stop-opacity="1" stop-color="#ffffff" offset="0%"/>
    <stop id="stop551938" stop-opacity="1" stop-color="#cccccc" offset="50%"/>
    <stop id="stop551940" stop-opacity="1" stop-color="#000000" offset="100%"/>
  </linearGradient><g id="logo-group">
    <image id="container" x="272" y="144" width="480" height="480" style="display: none;" transform="translate(0 0)" xlink:href=""/>
    <g id="logo-center" transform="translate(0 0)">
      <image id="icon_container" x="0" y="0" style="display: none;" xlink:href=""/>
      <g id="slogan" style="font-style:normal;font-weight:400;font-size:32px;line-height:1;font-family:'Maven Pro';font-variant-ligatures:none;text-align:center;text-anchor:middle" transform="translate(0 0)"/>
      <g id="title" style="font-style:normal;font-weight:normal;font-size:72px;line-height:1;font-family:'Brandmark Sans 11';font-variant-ligatures:normal;text-align:center;text-anchor:middle" transform="translate(0 0)">
        <path id="path551959" style="font-style:normal;font-weight:normal;font-size:72px;line-height:1;font-family:'Brandmark Sans 11';font-variant-ligatures:normal;text-align:center;text-anchor:middle" d="M 253.21584,-0.09690444 V -13.95424 H 219.6869 v -15.020188 h 27.90848 V -42.831763 H 219.6869 v -15.407806 h 33.52894 v -13.857335 h -49.51817 v 71.99999956 z" stroke-width="0" stroke-linejoin="miter" stroke-miterlimit="2" fill="#2b4f8c" stroke="#2b4f8c" transform="translate(0 292.769579) translate(216.93797515000006 59.190417440000004) scale(0.89) translate(-203.69767 72.096904)"/>
        <path id="path551961" style="font-style:normal;font-weight:normal;font-size:72px;line-height:1;font-family:'Brandmark Sans 11';font-variant-ligatures:normal;text-align:center;text-anchor:middle" d="m 321.84576,0 h 18.02422 L 309.44199,-54.751009 299.94535,-72 290.83634,-55.720054 259.92382,0 h 19.18708 l 21.31898,-38.471063 z" stroke-width="0" stroke-linejoin="miter" stroke-miterlimit="2" fill="#223f70" stroke="#223f70" transform="translate(0 292.769579) translate(271.42924865000003 59.276662) scale(0.89) translate(-259.92382 72)"/>
        <path id="path551963" style="font-style:normal;font-weight:normal;font-size:72px;line-height:1;font-family:'Brandmark Sans 11';font-variant-ligatures:normal;text-align:center;text-anchor:middle" d="m 398.673,-19.768506 v -2.034993 c -0.0969,-2.422611 -0.58143,-5.135936 -1.74428,-7.752356 -1.06595,-2.519515 -2.90713,-4.942126 -4.94213,-6.589502 -1.93809,-1.74428 -4.06998,-2.907133 -6.00807,-3.876177 -3.97308,-1.74428 -7.65545,-2.61642 -11.04711,-3.48856 -3.29475,-0.969045 -6.4926,-1.74428 -9.20592,-2.810229 -0.48452,-0.0969 -0.87214,-0.290713 -1.35666,-0.484522 -0.0969,-0.0969 -0.29072,-0.0969 -0.38762,-0.193809 l -1.06595,-0.484522 c 0,0 0,-0.0969 -0.0969,-0.0969 l -0.58143,-0.290713 c -0.38762,-0.193809 -0.67833,-0.484522 -0.96904,-0.678331 -0.48453,-0.387618 -0.77524,-0.678331 -0.96905,-0.969045 -0.29071,-0.484522 -0.48452,-0.87214 -0.58143,-1.453566 -0.0969,-0.581427 -0.0969,-1.647376 0,-2.228802 0.19381,-0.678331 0.38762,-1.065949 0.77524,-1.453567 0.29071,-0.387618 0.77524,-0.775236 1.55047,-1.162853 1.35666,-0.775236 3.77927,-1.356662 6.29879,-1.453567 0.58143,-0.0969 1.25976,-0.0969 1.93809,-0.0969 h 0.87214 c 0.29071,0 0.48452,0.0969 0.77523,0.0969 1.06595,0.0969 2.035,0.290713 3.00404,0.678331 1.84119,0.678331 3.48856,1.841185 4.55451,3.197847 1.06595,1.356662 1.64738,2.713324 1.64738,4.263795 h 16.08613 c 0.0969,-5.23284 -1.84118,-10.562584 -5.03903,-14.438762 -3.19784,-3.973082 -7.36474,-6.686406 -11.82234,-8.236877 -2.32571,-0.775236 -4.65141,-1.259758 -6.97712,-1.453567 -0.58143,-0.0969 -1.16285,-0.0969 -1.74428,-0.0969 h -1.64737 c -0.96905,0 -2.035,0.0969 -3.10095,0.193809 -2.3257,0.290713 -4.74831,0.678331 -7.26783,1.550471 -1.84118,0.581426 -3.77927,1.453566 -5.62046,2.519515 -2.1319,1.356662 -4.26379,3.294751 -5.91117,5.717362 -1.64737,2.325707 -2.71332,5.135936 -3.00404,7.84926 -0.1938,1.356662 -0.1938,2.61642 -0.1938,3.876178 0.0969,1.259757 0.29071,2.61642 0.58142,3.973082 0.58143,2.61642 2.03499,5.426649 3.87618,7.461642 1.84118,2.131898 3.97308,3.585464 5.91117,4.651413 2.03499,1.065949 3.97308,1.841184 5.81427,2.519515 3.68237,1.259758 7.07402,2.034994 10.17496,2.907134 3.10095,0.87214 6.00808,1.938089 8.04307,3.197846 1.06595,0.581427 1.84119,1.259758 2.32571,1.841185 0.48452,0.581426 0.67833,1.065949 0.77523,1.647375 0.19381,0.484522 0.29072,1.162853 0.29072,2.131898 0,0.387618 0,0.581427 -0.0969,0.87214 -0.0969,0.193809 -0.0969,0.484522 -0.19381,0.678331 -0.1938,0.387618 -0.58142,0.87214 -1.06594,1.356662 -0.58143,0.484522 -1.35667,0.969045 -2.22881,1.453567 -1.84118,0.87214 -4.26379,1.453566 -6.78331,1.647375 -0.58142,0 -1.25976,0.0969 -1.84118,0.0969 -0.58143,0 -1.16286,-0.0969 -1.64738,-0.0969 -1.06595,-0.0969 -2.1319,-0.387618 -3.10094,-0.678331 -1.93809,-0.775235 -3.58546,-1.841184 -4.74832,-3.197846 -1.06595,-1.259758 -1.64737,-2.61642 -1.64737,-4.069987 h -16.08614 c 0,2.61642 0.38762,5.329744 1.35666,7.84926 0.96905,2.422611 2.2288,4.651413 3.87618,6.5895018 3.19785,3.9730821 7.36474,6.6864065 11.72544,8.23687755 2.2288,0.77523553 4.4576,1.35666218 6.78331,1.55047106 1.16285,0.19380889 2.3257,0.19380889 3.48856,0.19380889 0.96904,0 2.03499,0 3.10094,-0.096904 4.2638,-0.38761781 8.52759,-1.35666222 12.79139,-3.4885599 2.03499,-1.0659489 4.16689,-2.4226111 6.00807,-4.2637955 1.93809,-1.7442799 3.68237,-4.0699865 4.84522,-6.7833105 0.58143,-1.356663 0.96905,-2.713325 1.16286,-4.166891 0.19381,-0.678331 0.19381,-1.453567 0.29071,-2.131898 z" stroke-width="0" stroke-linejoin="miter" stroke-miterlimit="2" fill="#1a3054" stroke="#1a3054" transform="translate(0 292.769579) translate(350.03391515000004 58.06924083) scale(0.89) translate(-343.24367 73.356653)"/>
        <path id="path551965" style="font-style:normal;font-weight:normal;font-size:72px;line-height:1;font-family:'Brandmark Sans 11';font-variant-ligatures:normal;text-align:center;text-anchor:middle" d="m 441.43303,-34.401077 25.00135,-37.695827 h -15.98924 l -17.05518,25.679677 -16.95827,-25.679677 h -15.98924 l 25.00135,37.695827 v 34.30417256 h 15.98923 z" stroke-width="0" stroke-linejoin="miter" stroke-miterlimit="2" fill="#112039" stroke="#112039" transform="translate(0 292.769579) translate(405.39082935000005 59.190417440000004) scale(0.89) translate(-400.44245 72.096904)"/>
        <path id="path551967" style="font-style:normal;font-weight:normal;font-size:72px;line-height:1;font-family:'Brandmark Sans 11';font-variant-ligatures:normal;text-align:center;text-anchor:middle" d="m 524.53238,-19.768506 v -2.034993 c -0.0969,-2.422611 -0.58143,-5.135936 -1.74428,-7.752356 -1.06595,-2.519515 -2.90714,-4.942126 -4.94213,-6.589502 -1.93809,-1.74428 -4.06999,-2.907133 -6.00808,-3.876177 -3.97308,-1.74428 -7.65545,-2.61642 -11.0471,-3.48856 -3.29475,-0.969045 -6.4926,-1.74428 -9.20593,-2.810229 -0.48452,-0.0969 -0.87213,-0.290713 -1.35666,-0.484522 -0.0969,-0.0969 -0.29071,-0.0969 -0.38761,-0.193809 l -1.06595,-0.484522 c 0,0 0,-0.0969 -0.0969,-0.0969 l -0.58142,-0.290713 c -0.38762,-0.193809 -0.67834,-0.484522 -0.96905,-0.678331 -0.48452,-0.387618 -0.77523,-0.678331 -0.96904,-0.969045 -0.29072,-0.484522 -0.48453,-0.87214 -0.58143,-1.453566 -0.0969,-0.581427 -0.0969,-1.647376 0,-2.228802 0.19381,-0.678331 0.38762,-1.065949 0.77524,-1.453567 0.29071,-0.387618 0.77523,-0.775236 1.55047,-1.162853 1.35666,-0.775236 3.77927,-1.356662 6.29878,-1.453567 0.58143,-0.0969 1.25976,-0.0969 1.93809,-0.0969 h 0.87214 c 0.29072,0 0.48453,0.0969 0.77524,0.0969 1.06595,0.0969 2.03499,0.290713 3.00404,0.678331 1.84118,0.678331 3.48856,1.841185 4.55451,3.197847 1.06594,1.356662 1.64737,2.713324 1.64737,4.263795 h 16.08614 c 0.0969,-5.23284 -1.84119,-10.562584 -5.03903,-14.438762 -3.19785,-3.973082 -7.36474,-6.686406 -11.82234,-8.236877 -2.32571,-0.775236 -4.65142,-1.259758 -6.97712,-1.453567 -0.58143,-0.0969 -1.16286,-0.0969 -1.74428,-0.0969 h -1.64738 c -0.96904,0 -2.03499,0.0969 -3.10094,0.193809 -2.32571,0.290713 -4.74832,0.678331 -7.26783,1.550471 -1.84119,0.581426 -3.77928,1.453566 -5.62046,2.519515 -2.1319,1.356662 -4.2638,3.294751 -5.91117,5.717362 -1.64738,2.325707 -2.71333,5.135936 -3.00404,7.84926 -0.19381,1.356662 -0.19381,2.61642 -0.19381,3.876178 0.0969,1.259757 0.29071,2.61642 0.58143,3.973082 0.58142,2.61642 2.03499,5.426649 3.87617,7.461642 1.84119,2.131898 3.97309,3.585464 5.91118,4.651413 2.03499,1.065949 3.97308,1.841184 5.81426,2.519515 3.68237,1.259758 7.07403,2.034994 10.17497,2.907134 3.10094,0.87214 6.00807,1.938089 8.04307,3.197846 1.06595,0.581427 1.84118,1.259758 2.3257,1.841185 0.48453,0.581426 0.67833,1.065949 0.77524,1.647375 0.19381,0.484522 0.29071,1.162853 0.29071,2.131898 0,0.387618 0,0.581427 -0.0969,0.87214 -0.0969,0.193809 -0.0969,0.484522 -0.19381,0.678331 -0.19381,0.387618 -0.58143,0.87214 -1.06595,1.356662 -0.58143,0.484522 -1.35666,0.969045 -2.2288,1.453567 -1.84119,0.87214 -4.2638,1.453566 -6.78331,1.647375 -0.58143,0 -1.25976,0.0969 -1.84119,0.0969 -0.58142,0 -1.16285,-0.0969 -1.64737,-0.0969 -1.06595,-0.0969 -2.1319,-0.387618 -3.10095,-0.678331 -1.93808,-0.775235 -3.58546,-1.841184 -4.74831,-3.197846 -1.06595,-1.259758 -1.64738,-2.61642 -1.64738,-4.069987 h -16.08614 c 0,2.61642 0.38762,5.329744 1.35667,7.84926 0.96904,2.422611 2.2288,4.651413 3.87617,6.5895018 3.19785,3.9730821 7.36474,6.6864065 11.72544,8.23687755 2.2288,0.77523553 4.45761,1.35666218 6.78331,1.55047106 1.16286,0.19380889 2.32571,0.19380889 3.48856,0.19380889 0.96905,0 2.035,0 3.10094,-0.096904 4.2638,-0.38761781 8.5276,-1.35666222 12.79139,-3.4885599 2.03499,-1.0659489 4.16689,-2.4226111 6.00808,-4.2637955 1.93809,-1.7442799 3.68237,-4.0699865 4.84522,-6.7833105 0.58143,-1.356663 0.96904,-2.713325 1.16285,-4.166891 0.19381,-0.678331 0.19381,-1.453567 0.29072,-2.131898 z" stroke-width="0" stroke-linejoin="miter" stroke-miterlimit="2" fill="#09101d" stroke="#09101d" transform="translate(0 292.769579) translate(470.94875445 58.06924083) scale(0.89) translate(-469.10304 73.356653)"/>
        <path id="path551969" style="font-style:normal;font-weight:normal;font-size:72px;line-height:1;font-family:'Brandmark Sans 11';font-variant-ligatures:normal;text-align:center;text-anchor:middle" d="m 588.93863,-58.239569 v -13.857335 h -58.23957 v 13.857335 h 21.12516 v 58.14266456 h 15.98924 V -58.239569 Z" stroke-width="0" stroke-linejoin="miter" stroke-miterlimit="2" fill="#000101" stroke="#000101" transform="translate(0 292.769579) translate(530.2192122499999 59.190417440000004) scale(0.89) translate(-530.69906 72.096904)"/>
        <path id="path551971" style="font-style:normal;font-weight:normal;font-size:72px;line-height:1;font-family:'Brandmark Sans 11';font-variant-ligatures:normal;text-align:center;text-anchor:middle" d="m 657.67264,-61.146703 -2.61642,-2.616419 c -6.6864,-6.008076 -15.4078,-9.59354 -25.00134,-9.59354 -20.64065,0 -37.30821,16.667564 -37.30821,37.211305 0,20.640646 16.66756,37.3082103 37.30821,37.3082103 20.54374,0 37.2113,-16.6675643 37.2113,-37.3082103 0,-9.593539 -3.58546,-18.314939 -9.59354,-25.001346 z m -48.83984,25.001346 c 0,-11.628533 9.49664,-21.125168 21.22208,-21.125168 11.62853,0 21.22207,9.496635 21.22207,21.125168 0,11.725438 -9.59354,21.222073 -21.22207,21.222073 -11.72544,0 -21.22208,-9.496635 -21.22208,-21.222073 z" stroke-width="0" stroke-linejoin="miter" stroke-miterlimit="2" fill="#0e1a2d" stroke="#0e1a2d" transform="translate(0 292.769579) translate(589.89158515 58.069232819999996) scale(0.89) translate(-592.74667 73.356662)"/>
        <path id="path551973" style="font-style:normal;font-weight:normal;font-size:72px;line-height:1;font-family:'Brandmark Sans 11';font-variant-ligatures:normal;text-align:center;text-anchor:middle" d="m 749.00943,-24.904441 h -17.4428 c -3.77927,6.008075 -10.46568,10.078061 -18.12113,10.078061 -11.82234,0 -21.31898,-9.496635 -21.31898,-21.318977 0,-11.725437 9.49664,-21.222072 21.31898,-21.222072 7.07403,0 13.27591,3.391655 17.15209,8.721399 h 17.92732 c -5.13594,-14.438761 -18.99327,-24.710632 -35.07941,-24.710632 -20.54374,0 -37.30821,16.667564 -37.30821,37.211305 0,20.05922 15.89233,36.53297477 35.75774,37.3082103 h 1.55047 c 16.66757,0 30.81561,-10.9502019 35.56393,-26.0672943 z" stroke-width="0" stroke-linejoin="miter" stroke-miterlimit="2" fill="#1c345d" stroke="#1c345d" transform="translate(0 292.769579) translate(668.55923695 58.069232819999996) scale(0.89) translate(-676.13729 73.356662)"/>
        <path id="path551975" style="font-style:normal;font-weight:normal;font-size:72px;line-height:1;font-family:'Brandmark Sans 11';font-variant-ligatures:normal;text-align:center;text-anchor:middle" d="M 776.5619,-0.09690444 V -72.096904 h -15.98923 v 71.99999956 z m 0,-36.33916556 31.00942,36.33916556 H 826.7584 L 795.74898,-36.43607 821.13794,-72.096904 h -19.18708 z" stroke-width="0" stroke-linejoin="miter" stroke-miterlimit="2" fill="#2b4f8c" stroke="#2b4f8c" transform="translate(0 292.769579) translate(748.1567251499999 59.190417440000004) scale(0.89) translate(-760.57267 72.096904)"/>
      </g>
      <image id="icon" x="0" y="0" style="display: none;" xlink:href=""/>
    </g>
  </g></g></svg>